<svg id="Capa_1" enable-background="new 0 0 512 512" height="512" viewBox="0 0 512 512" width="512" xmlns="http://www.w3.org/2000/svg"><path d="m512 255.27v.73c0 16.78-1.61 33.19-4.71 49.07-.55 2.88-1.16 5.73-1.81 8.57-.18.81-.38 1.62-.57 2.42-.11.45-.22.89-.33 1.34 0 .02-.01.04-.01.06-.01.05-.02.1-.04.15-.01.07-.03.14-.05.21-3.48 14.05-8.13 27.64-13.84 40.67-.04.12-.09.24-.15.36-32.31 73.59-98.26 129.06-178.38 146.97-5.23 1.18-10.52 2.19-15.86 3.03-13.11 2.07-26.56 3.15-40.25 3.15-.92 0-1.84 0-2.75-.02-4.07-.04-8.12-.17-12.14-.41-.2-.01-.41-.02-.61-.04-134.16-8.01-240.5-119.36-240.5-255.53 0-141.38 114.62-256 256-256 136.17 0 247.51 106.33 255.53 240.49.3 4.89.46 9.82.47 14.78z" fill="#25dcc1"/><path d="m512 255.27v.73c0 16.78-1.61 33.19-4.71 49.07-.55 2.88-1.16 5.73-1.81 8.57-.18.81-.38 1.62-.57 2.42-.11.45-.22.89-.33 1.34 0 .02-.01.04-.01.06-.01.05-.02.1-.04.15-.01.07-.03.14-.05.21-3.48 14.05-8.13 27.64-13.84 40.67-.04.12-.09.24-.15.36-32.31 73.59-98.26 129.06-178.38 146.97-5.23 1.18-10.52 2.19-15.86 3.03-13.11 2.07-26.56 3.15-40.25 3.15-.92 0-1.84 0-2.75-.02-4.07-.04-8.12-.17-12.14-.41-.2-.01-87.93-87.36-87.93-87.36s-9.376-14.018-14.13-21.28c-.194-.296-49.75-49.76-49.75-49.76l13.17-96.51-13.25-13.26 149.65-154.94 20.74 20.74 100.12-20.51s151.54 151.53 151.8 151.8c.3 4.89.46 9.82.47 14.78z" fill="#19aa94"/><path d="m406.214 254.955c20.563-9.733 34.786-30.629 34.786-54.844 0-33.512-27.23-60.678-60.821-60.678-1.024 0-2.042.027-3.054.077v-7.566h-.02c.003-.261.02-.519.02-.781 0-33.512-27.23-60.678-60.821-60.678-30.944 0-56.473 23.061-60.305 52.894-3.832-29.832-29.361-52.894-60.305-52.894-33.59 0-60.821 27.167-60.821 60.678 0 .262.016.52.02.781h-.02v7.566c-1.012-.05-2.029-.077-3.054-.077-33.589-.001-60.819 27.166-60.819 60.678 0 24.216 14.223 45.112 34.786 54.845-20.563 9.732-34.786 30.628-34.786 54.844 0 33.511 27.23 60.678 60.821 60.678 1.024 0 2.042-.027 3.054-.077v10.436c0 33.512 27.23 60.678 60.821 60.678 30.945 0 56.473-23.062 60.305-52.894 3.832 29.832 29.361 52.894 60.305 52.894 33.59 0 60.821-27.167 60.821-60.678v-10.436c1.012.05 2.029.077 3.054.077 33.59 0 60.821-27.167 60.821-60.678-.002-24.216-14.225-45.112-34.788-54.845z" fill="#fc393e"/><path d="m406.214 254.955c20.563-9.733 34.786-30.629 34.786-54.844 0-33.512-27.23-60.678-60.821-60.678-1.024 0-2.042.027-3.054.077v-7.566h-.02c.003-.261.02-.519.02-.781 0-33.512-27.23-60.678-60.821-60.678-30.945 0-56.473 23.061-60.305 52.893v265.244c3.832 29.832 29.361 52.894 60.305 52.894 33.59 0 60.821-27.167 60.821-60.678v-10.436c1.012.05 2.029.077 3.054.077 33.59 0 60.821-27.167 60.821-60.678 0-24.217-14.223-45.113-34.786-54.846z" fill="#c6001c"/><g fill="#eaeaea"><path d="m336 261h30v50h-30z" transform="matrix(0 -1 1 0 65 637)"/><path d="m336 201h30v50h-30z" transform="matrix(0 -1 1 0 125 577)"/><path d="m271 136h30v50h-30z" transform="matrix(-1 0 0 -1 572 322)"/></g><path d="m211 136h30v50h-30z" fill="#fff" transform="matrix(-1 0 0 -1 452 322)"/><path d="m271 326h30v50h-30z" fill="#eaeaea" transform="matrix(-1 0 0 -1 572 702)"/><path d="m211 326h30v50h-30z" fill="#fff" transform="matrix(-1 0 0 -1 452 702)"/><path d="m146 261h30v50h-30z" fill="#fff" transform="matrix(0 -1 1 0 -125 447)"/><path d="m146 201h30v50h-30z" fill="#fff" transform="matrix(0 -1 1 0 -65 387)"/><path d="m191 191h130v130h-130z" fill="#da7d00"/><path d="m336 336h-160v-160h160zm-130-30h100v-100h-100z" fill="#fd9e27"/><path d="m256 191h65v130h-65z" fill="#b96b00"/><path d="m256 176v30h50v100h-50v30h80v-160z" fill="#da7d00"/></svg>