<?xml version="1.0" encoding="iso-8859-1"?>
<!-- Generator: Adobe Illustrator 19.0.0, SVG Export Plug-In . SVG Version: 6.00 Build 0)  -->
<svg version="1.1" id="Capa_1" xmlns="http://www.w3.org/2000/svg" xmlns:xlink="http://www.w3.org/1999/xlink" x="0px" y="0px"
	 viewBox="0 0 512 512" style="enable-background:new 0 0 512 512;" xml:space="preserve">
<circle style="fill:#77767E;" cx="256" cy="256" r="256"/>
<path style="fill:#3A383F;" d="M511.892,263.254L302.346,53.708l-13.609-5.875l-17.408,40.328c-2.612-0.758-5.295-1.33-8.037-1.699
	l-40.027-38.628l-13.609,5.875l17.459,40.446c-17.753,10.823-29.739,31.297-29.739,54.791c0,5.072,0.574,9.997,1.627,14.722
	c-10.618,6.551-20.335,14.88-28.88,24.648l-17.377-13.46l-13.764-9.121l-28.078,42.372l30.489,30.272
	c-4.901,14.115-8.017,29.33-9.003,45.251l-43.825-3.027l-7.918,50.21l39.272,39.898l-11.743,9.354l28.078,42.372l87.553,87.553
	C234.353,511.314,245.096,512,256,512C394.958,512,508.05,401.284,511.892,263.254z"/>
<rect x="218.895" y="48.743" transform="matrix(-0.9181 0.3963 -0.3963 -0.9181 463.2471 51.4668)" style="fill:#00CFB4;" width="14.823" height="49.694"/>
<rect x="278.286" y="48.746" transform="matrix(0.9181 0.3963 -0.3963 0.9181 52.5592 -107.1982)" style="fill:#00AF95;" width="14.823" height="49.694"/>
<polygon style="fill:#00FEF6;" points="156.206,244.195 110.902,208.106 138.98,165.734 152.745,174.855 133.023,204.617 
	166.494,231.279 "/>
<g>
	<polygon style="fill:#00E0C1;" points="355.793,244.195 345.506,231.279 378.977,204.617 359.255,174.855 373.02,165.734 
		401.097,208.106 	"/>
	<polygon style="fill:#00E0C1;" points="375.746,422.437 361.981,413.316 381.703,383.555 348.232,356.892 358.52,343.976 
		403.824,380.065 	"/>
</g>
<g>
	<polygon style="fill:#00FEF6;" points="136.254,422.437 108.176,380.065 153.48,343.976 163.768,356.892 130.297,383.555 
		150.018,413.316 	"/>
	<polygon style="fill:#00FEF6;" points="96.958,333.384 80.646,330.813 88.564,280.603 146.347,284.593 145.21,301.066 
		102.518,298.118 	"/>
</g>
<polygon style="fill:#00E0C1;" points="415.043,333.385 409.482,298.118 366.79,301.066 365.653,284.593 423.436,280.603 
	431.354,330.812 "/>
<ellipse style="fill:#00FEF6;" cx="256" cy="148.95" rx="58.63" ry="62.974"/>
<path style="fill:#00E0C1;" d="M314.626,148.951c0,5.071-0.561,10.003-1.615,14.721c-5.58,25.014-25.058,44.239-49.187,47.695
	c-2.553,0.364-5.174,0.556-7.824,0.556V85.967C288.379,85.967,314.626,114.169,314.626,148.951z"/>
<ellipse style="fill:#FF7B50;" cx="256" cy="294.61" rx="123.95" ry="147.42"/>
<path style="fill:#FF4F19;" d="M379.954,294.604c0,79.856-53.384,144.883-120.027,147.343c-0.648,0.021-1.306,0.043-1.963,0.053
	c-0.648,0.011-1.306,0.021-1.963,0.021V147.186c0.658,0,1.315,0.011,1.963,0.021c0.658,0.011,1.315,0.032,1.963,0.053
	c19.1,0.706,37.108,6.548,53.084,16.412C352.788,188.215,379.954,237.633,379.954,294.604z"/>
<path style="fill:#FF2100;" d="M256,147.183c-2.628,0-5.234,0.109-7.822,0.301v294.242c2.587,0.192,5.194,0.301,7.822,0.301
	c2.628,0,5.234-0.109,7.822-0.301V147.484C261.234,147.292,258.628,147.183,256,147.183z"/>
<path style="fill:#A70A00;" d="M263.824,147.485v294.238c-1.296,0.096-2.592,0.171-3.897,0.225
	c-0.648,0.021-1.306,0.043-1.963,0.053c-0.648,0.011-1.306,0.021-1.963,0.021V147.186c0.658,0,1.315,0.011,1.963,0.021
	c0.658,0.011,1.315,0.032,1.963,0.053C261.232,147.314,262.528,147.389,263.824,147.485z"/>
<g>
	<rect x="167.35" y="222.6" style="fill:#00FEF6;" width="26.26" height="30.496"/>
	<rect x="167.35" y="342.12" style="fill:#00FEF6;" width="26.26" height="30.496"/>
	<rect x="206.07" y="282.36" style="fill:#00FEF6;" width="26.26" height="30.496"/>
</g>
<g>
	<rect x="318.39" y="222.6" style="fill:#00CFB4;" width="26.26" height="30.496"/>
	<rect x="318.39" y="342.12" style="fill:#00CFB4;" width="26.26" height="30.496"/>
	<rect x="279.67" y="282.36" style="fill:#00CFB4;" width="26.26" height="30.496"/>
</g>
<g>
</g>
<g>
</g>
<g>
</g>
<g>
</g>
<g>
</g>
<g>
</g>
<g>
</g>
<g>
</g>
<g>
</g>
<g>
</g>
<g>
</g>
<g>
</g>
<g>
</g>
<g>
</g>
<g>
</g>
</svg>
