<svg id="Capa_1" enable-background="new 0 0 512 512" height="512" viewBox="0 0 512 512" width="512" xmlns="http://www.w3.org/2000/svg"><path d="m512 256c0 1.81-.02 3.61-.05 5.41-.1 4.67-.32 9.31-.67 13.93-.08 1-.16 2-.25 3-.45 5.17-1.04 10.3-1.8 15.38-2.61 17.75-7.06 34.91-13.14 51.28-2.85 7.71-6.06 15.24-9.63 22.57-40.74 84.03-126.09 142.41-225.27 144.38-1.72.03-3.46.05-5.19.05-5.71 0-11.38-.19-17-.56-2.34-.15-4.68-.34-7.01-.56-130.13-12.1-231.99-121.59-231.99-254.88 0-141.38 114.62-256 256-256 139.17 0 252.42 111.07 255.92 249.4.05 2.2.08 4.39.08 6.6z" fill="#06465e"/><path d="m511.95 261.41c-.1 4.67-.32 9.31-.67 13.93-.08 1-.16 2-.25 3-.45 5.17-1.04 10.3-1.8 15.38-2.61 17.75-7.06 34.91-13.14 51.28-2.85 7.71-6.06 15.24-9.63 22.57-40.74 84.03-126.09 142.41-225.27 144.38-1.72.03-3.46.05-5.19.05-5.71 0-11.38-.19-17-.56-2.34-.15-4.68-.34-7.01-.56l-69-68.32v-115.78c-.19-.19-7.57-7.57-7.57-7.57s205.07-209.26 205.72-208.61c.17.17 150.74 150.74 150.81 150.81z" fill="#022b3a"/><path d="m433.539 297.532-30.77-91.706c-6.289-89.051-75.484-137.349-146.851-137.326-80.472.026-146.136 66.358-145.412 146.856.4 44.458 20.733 84.15 52.487 110.578v116.622l155.053.003v-56.273h79.11v-88.756z" fill="#fff"/><path d="m402.769 205.826c-6.286-89.016-75.336-137.69-146.769-137.325v374.059h62.045v-56.273h79.11v-88.757l36.383.002z" fill="#eaeaea"/><g fill="#2864f0"><path d="m349.179 355.083v-30h-113.479v-76h-86v30h56v76z"/><path d="m149.7 199.083h202.978v30h-202.978z"/><path d="m318.151 111.083h-112.451v38h-56v30h86v-38h82.451z"/></g><path d="m256 325.083h93.179v30h-93.179z" fill="#0053bf"/><path d="m256 199.083h96.678v30h-96.678z" fill="#0053bf"/><path d="m256 111.083h62.151v30h-62.151z" fill="#0053bf"/><circle cx="337.121" cy="336.5" fill="#c6001c" r="25"/><circle cx="360.121" cy="214.083" fill="#c6001c" r="25"/><circle cx="312.245" cy="126.083" fill="#c6001c" r="25"/></svg>