<svg id="Capa_1" enable-background="new 0 0 512.001 512.001" height="512" viewBox="0 0 512.001 512.001" width="512" xmlns="http://www.w3.org/2000/svg"><path d="m331.19 391.431h-150.379c-8.284 0-15-6.716-15-15v-61.006c0-4.955-2.46-9.669-6.581-12.61-44.929-32.064-71.097-84.15-69.998-139.329 1.813-91.215 77.49-164.577 168.771-163.474 44.137.521 85.547 18.11 116.603 49.529 31.08 31.442 48.196 73.115 48.196 117.339 0 53.849-26.202 104.681-70.09 135.976-4.085 2.912-6.523 7.61-6.523 12.566v61.008c.001 8.285-6.715 15.001-14.999 15.001z" fill="#ffe645"/><path d="m258.003.012c-.669-.008-1.335.001-2.003.001v391.418h75.189c8.284 0 15-6.716 15-15v-61.008c0-4.956 2.438-9.654 6.523-12.566 43.888-31.295 70.09-82.127 70.09-135.976 0-44.225-17.116-85.897-48.196-117.339-31.056-31.419-72.466-49.009-116.603-49.53z" fill="#ffb500"/><path d="m261.19 512.001h-10.379c-30.327 0-55-24.673-55-55v-20.282c0-8.284 6.716-15 15-15h90.379c8.284 0 15 6.716 15 15v20.282c0 30.327-24.673 55-55 55z" fill="#006099"/><path d="m301.19 421.719h-45.19v90.282h5.189c30.327 0 55-24.673 55-55v-20.282c.001-8.284-6.715-15-14.999-15z" fill="#00213b"/><path d="m301.19 451.719h-90.379c-24.813 0-45-20.194-45-45.016v-45.272h180.379v45.272c0 24.822-20.187 45.016-45 45.016z" fill="#c4c0ad"/><path d="m256 451.719h45.189c24.813 0 45-20.194 45-45.016v-45.272h-90.189z" fill="#a19d8d"/><path d="m256 193.71c-13.785 0-25-11.219-25-25.009s11.215-25.008 25-25.008 25 11.219 25 25.008c0 13.791-11.214 25.009-25 25.009z" fill="#006099"/><path d="m281 168.702c0-13.79-11.215-25.008-25-25.008v50.017c13.785-.001 25-11.219 25-25.009z" fill="#00213b"/><path d="m201 168.702c0-1.386.053-2.759.155-4.118.443-5.855-4.086-10.882-9.957-10.882h-25.198c-8.259 0-14.995 6.681-15 14.94-.021 37.343 20.094 72.217 52.486 91 2.306 1.337 4.904 2.024 7.524 2.024 2.855 0 5.734-.815 8.293-2.488 2.016-1.318 3.633-3.166 4.837-5.252l12.542-21.734c2.899-5.024.813-11.366-4.416-13.878-18.478-8.876-31.266-27.777-31.266-49.612z" fill="#006099"/><path d="m346 153.702h-25.198c-5.871 0-10.4 5.027-9.957 10.882.103 1.359.155 2.733.155 4.118 0 21.835-12.788 40.736-31.266 49.613-5.228 2.512-7.315 8.854-4.416 13.878l12.542 21.734c1.204 2.087 2.821 3.934 4.837 5.252 2.558 1.673 5.437 2.488 8.293 2.488 2.62 0 5.219-.686 7.524-2.024 32.392-18.783 52.508-53.657 52.486-91-.005-8.26-6.74-14.941-15-14.941z" fill="#00213b"/><path d="m308.514 77.761c-15.912-9.228-34.071-14.105-52.514-14.105-18.442 0-36.602 4.877-52.514 14.105-7.156 4.149-9.602 13.309-5.468 20.473l12.611 21.854c2.89 5.009 9.462 6.599 14.22 3.313 8.86-6.118 19.592-9.708 31.151-9.708 11.558 0 22.29 3.59 31.15 9.708 4.759 3.286 11.33 1.696 14.22-3.313l12.611-21.854c4.134-7.164 1.689-16.323-5.467-20.473z" fill="#006099"/><path d="m287.151 123.402c4.759 3.286 11.33 1.696 14.22-3.313l12.611-21.854c4.134-7.165 1.689-16.324-5.468-20.473-15.912-9.229-34.071-14.106-52.514-14.106v50.038c11.559-.001 22.291 3.589 31.151 9.708z" fill="#00213b"/><path d="m45.748 182.051h-30.748c-8.284 0-15-6.716-15-15s6.716-15 15-15h30.748c8.284 0 15 6.716 15 15s-6.716 15-15 15z" fill="#ffcf2c"/><path d="m497 182.051h-30.748c-8.284 0-15-6.716-15-15s6.716-15 15-15h30.748c8.284 0 15 6.716 15 15s-6.716 15-15 15z" fill="#ffb500"/><path d="m85.891 58.406c-3.059 0-6.144-.932-8.807-2.868l-24.877-18.083c-6.7-4.871-8.184-14.252-3.313-20.953 4.871-6.7 14.251-8.184 20.953-3.313l24.875 18.083c6.701 4.871 8.185 14.252 3.313 20.953-2.933 4.037-7.507 6.181-12.144 6.181z" fill="#ffcf2c"/><path d="m450.96 323.78c-3.059 0-6.144-.932-8.807-2.868l-24.876-18.083c-6.701-4.871-8.185-14.252-3.313-20.953 4.869-6.7 14.25-8.185 20.952-3.314l24.876 18.083c6.701 4.871 8.185 14.252 3.314 20.953-2.935 4.039-7.509 6.182-12.146 6.182z" fill="#ffb500"/><path d="m61.04 323.78c-4.638 0-9.211-2.144-12.146-6.181-4.871-6.701-3.388-16.082 3.313-20.953l24.876-18.083c6.701-4.87 16.082-3.387 20.952 3.314 4.871 6.701 3.388 16.082-3.313 20.953l-24.876 18.083c-2.662 1.935-5.748 2.867-8.806 2.867z" fill="#ffcf2c"/><path d="m426.11 58.406c-4.638 0-9.21-2.143-12.145-6.181-4.871-6.701-3.388-16.082 3.313-20.953l24.875-18.083c6.702-4.873 16.083-3.387 20.953 3.313 4.871 6.701 3.388 16.081-3.313 20.953l-24.877 18.083c-2.662 1.936-5.749 2.868-8.806 2.868z" fill="#ffb500"/></svg>