<?xml version="1.0" encoding="iso-8859-1"?>
<!-- Generator: Adobe Illustrator 19.0.0, SVG Export Plug-In . SVG Version: 6.00 Build 0)  -->
<svg version="1.1" id="Layer_1" xmlns="http://www.w3.org/2000/svg" xmlns:xlink="http://www.w3.org/1999/xlink" x="0px" y="0px"
	 viewBox="0 0 509.287 509.287" style="enable-background:new 0 0 509.287 509.287;" xml:space="preserve">
<circle style="fill:#6EB1E1;" cx="254.644" cy="254.644" r="254.644"/>
<path style="fill:#4F5565;" d="M266.511,397.393v-39.672h-23.735v39.672c-18.31,5.086-31.534,22.04-31.534,41.706
	c0,24.074,19.327,43.401,43.401,43.401s43.401-19.327,43.401-43.401C298.045,419.094,284.821,402.479,266.511,397.393z
	 M254.644,461.139c-12.207,0-22.04-9.833-22.04-22.04c0-12.207,9.833-22.04,22.04-22.04c12.207,0,22.04,9.833,22.04,22.04
	C276.683,451.306,266.85,461.139,254.644,461.139z"/>
<rect x="40.011" y="46.453" style="fill:#F1F3F7;" width="428.927" height="332.291"/>
<rect x="26.109" y="26.787" style="fill:#F0582F;" width="457.07" height="35.942"/>
<path style="fill:#646B79;" d="M119.015,301.436c-1.695,0-3.73-0.339-5.086-1.356c-4.747-3.052-6.442-9.155-3.391-13.902
	l84.768-140.715c1.695-2.713,4.408-4.408,7.799-4.747c3.052-0.339,6.442,1.017,8.477,3.391l106.808,117.658l68.154-132.238
	c2.713-5.086,8.816-7.121,13.563-4.408c5.086,2.713,6.781,8.816,4.408,13.563l-74.935,145.123c-1.695,3.052-4.408,5.086-7.799,5.425
	c-3.391,0.339-6.781-0.678-8.816-3.391L205.478,167.841l-77.987,128.848C125.796,299.74,122.405,301.436,119.015,301.436z"/>
<circle style="fill:#886C60;" cx="119.015" cy="291.264" r="38.993"/>
<circle style="fill:#0090FF;" cx="203.783" cy="150.887" r="38.993"/>
<circle style="fill:#73D658;" cx="320.424" cy="279.396" r="38.993"/>
<circle style="fill:#F0582F;" cx="390.273" cy="133.934" r="38.993"/>
<g>
</g>
<g>
</g>
<g>
</g>
<g>
</g>
<g>
</g>
<g>
</g>
<g>
</g>
<g>
</g>
<g>
</g>
<g>
</g>
<g>
</g>
<g>
</g>
<g>
</g>
<g>
</g>
<g>
</g>
</svg>
