<svg id="Capa_1" enable-background="new 0 0 512 512" height="512" viewBox="0 0 512 512" width="512" xmlns="http://www.w3.org/2000/svg"><path d="m512 256v.14c-.01 10.37-.63 20.61-1.84 30.65-10.98 91.68-70.43 168.47-151.98 204-15.74 6.86-32.29 12.18-49.49 15.77-.75.16-1.49.31-2.24.46-5.46 1.1-10.98 2.02-16.57 2.76-11.08 1.46-22.39 2.22-33.88 2.22-3.35 0-6.68-.06-10-.19-18.35-.71-36.21-3.34-53.38-7.72-110.72-28.2-192.62-128.58-192.62-248.09 0-141.38 114.62-256 256-256 135.61 0 246.6 105.46 255.42 238.84.01.17.02.33.03.5.16 2.28.28 4.57.36 6.87.13 3.25.19 6.51.19 9.79z" fill="#fc393e"/><path d="m512 256.14c-.01 10.37-.63 20.61-1.84 30.65-10.98 91.68-70.43 168.47-151.98 204-15.74 6.86-32.29 12.18-49.49 15.77-.75.16-1.49.31-2.24.46-5.46 1.1-10.98 2.02-16.57 2.76-11.08 1.46-22.39 2.22-33.88 2.22-3.35 0-6.68-.06-10-.19-18.35-.71-36.21-3.34-53.38-7.72l-70-69.65 22.71-65 3.89-84.29c-.21-.22-8.64-8.64-8.64-8.64s49.56-102.3 50.93-102.09l151.36-87.41c0 0 169.08 169.09 169.13 169.13z" fill="#c6001c"/><path d="m222.624 428.183h-80l10-216.888h60z" fill="#fff"/><path d="m182.625 428.183h39.999l-10-216.888h-29.999z" fill="#eaeaea"/><path d="m122.624 369.441h120v65h-120z" fill="#06465e"/><path d="m182.625 369.441h60v65h-60z" fill="#022b3a"/><path d="m418.572 203.59-128.352-128.351-35.355 35.355.235.235-101.672 101.672 49.498 49.498 101.672-101.672 78.619 78.619z" fill="#eaeaea"/><circle cx="182.624" cy="233.753" fill="#25dcc1" r="45"/><path d="m182.625 188.753v90c24.853 0 45-20.147 45-45-.001-24.853-20.148-45-45-45z" fill="#19aa94"/><path d="m182.624 293.753c-33.084 0-60-26.916-60-60s26.916-60 60-60 60 26.916 60 60-26.916 60-60 60zm0-90c-16.542 0-30 13.458-30 30s13.458 30 30 30 30-13.458 30-30-13.458-30-30-30z" fill="#06465e"/><path d="m182.625 173.753v30c16.542 0 30 13.458 30 30s-13.458 30-30 30v30c33.084 0 60-26.916 60-60s-26.917-60-60-60z" fill="#022b3a"/><circle cx="304" cy="125.881" fill="#25dcc1" r="40"/><path d="m304 85.881v80c22.091 0 40-17.909 40-40s-17.908-39.999-40-40z" fill="#19aa94"/><path d="m304 180.881c-30.327 0-55-24.673-55-55s24.673-55 55-55 55 24.673 55 55-24.673 55-55 55zm0-80c-13.785 0-25 11.215-25 25s11.215 25 25 25 25-11.215 25-25-11.215-25-25-25z" fill="#06465e"/><path d="m304 70.881v30c13.785 0 25 11.215 25 25s-11.215 25-25 25v30c30.327 0 55-24.673 55-55s-24.673-54.999-55-55z" fill="#022b3a"/><path d="m430.5 273.606h-65v-47.5c0-17.949 14.551-32.5 32.5-32.5 17.949 0 32.5 14.551 32.5 32.5z" fill="#06465e"/><path d="m398 193.606v80h32.5v-47.5c0-17.949-14.55-32.499-32.5-32.5z" fill="#022b3a"/><path d="m371.24 354.622 9.791-22.612 3.76-8.683c-4.212-3.687-6.889-9.086-6.889-15.11 0-11.082 9.015-20.098 20.098-20.098s20.098 9.016 20.098 20.098c0 6.024-2.677 11.424-6.889 15.11l3.76 8.683 9.791 22.612c16.023-9.276 26.835-26.596 26.835-46.405 0-29.552-24.043-53.595-53.594-53.595s-53.594 24.042-53.594 53.595c-.001 19.809 10.81 37.129 26.833 46.405z" fill="#fff"/><path d="m398 254.622v33.497c11.082 0 20.097 9.016 20.097 20.098 0 6.024-2.677 11.424-6.889 15.11l3.76 8.683 9.791 22.612c16.023-9.276 26.834-26.596 26.834-46.406.001-29.551-24.041-53.593-53.593-53.594z" fill="#eaeaea"/></svg>