<svg height="512pt" viewBox="0 0 512 512" width="512pt" xmlns="http://www.w3.org/2000/svg"><path d="m512 256c0 141.386719-114.613281 256-256 256s-256-114.613281-256-256 114.613281-256 256-256 256 114.613281 256 256zm0 0" fill="#ffe4c2"/><path d="m512 256c0-13.6875-1.085938-27.117188-3.152344-40.222656l-76.199218-76.195313-1.210938 14.308594-83.210938-83.210937 4 64.359374-56.78125-56.777343-1.09375 75.421875-55.433593-55.433594-17.222657 13.871094-30.132812-30.136719-63.789062 77.199219-18.460938-18.097656-34.476562 88.410156 86.125 86.121094h-57.96875l-10.808594 85.738281 103.476562 103.472656c19.351563 4.675781 39.554688 7.171875 60.339844 7.171875 141.386719 0 256-114.613281 256-256zm0 0" fill="#f2bb88"/><g fill="#f24500"><path d="m209.050781 231.226562-81.277343-72.042968 36-88.503906 27.789062 11.304687-28 68.832031 65.386719 57.957032zm0 0"/><path d="m180.199219 276.6875-105.363281-47.191406 4.515624-89.914063 29.960938 1.503907-3.484375 69.417968 86.636719 38.808594zm0 0"/><path d="m92.1875 401.355469-13.585938-85.515625 112.066407-22.871094 5.996093 29.394531-83.929687 17.128907 9.078125 57.152343zm0 0"/><path d="m215.984375 143.078125c-21.652344-26.882813-9.097656-54.152344.566406-64.816406l22.230469 20.144531.136719-.15625c-.027344.035156-3.042969 3.609375-4.304688 8.707031-1.476562 5.960938.03125 11.457031 4.734375 17.300781zm0 0"/></g><path d="m302.949219 231.226562-19.898438-22.453124 65.386719-57.957032-28-68.832031 27.789062-11.304687 36 88.503906zm0 0" fill="#bf3404"/><path d="m331.800781 276.6875-12.265625-27.375 86.636719-38.808594-3.484375-69.417968 29.960938-1.503907 4.515624 89.914063zm0 0" fill="#bf3404"/><path d="m419.8125 401.355469-29.625-4.710938 9.078125-57.152343-83.929687-17.128907 5.996093-29.394531 112.066407 22.871094zm0 0" fill="#bf3404"/><path d="m296.015625 143.078125-23.363281-18.820313c4.898437-6.082031 6.339844-11.828124 4.523437-18.078124-1.320312-4.554688-3.933593-7.746094-3.957031-7.773438l22.230469-20.144531c9.664062 10.664062 22.21875 37.933593.566406 64.816406zm0 0" fill="#bf3404"/><path d="m294.273438 205.988281c10.851562-10.199219 17.640624-24.675781 17.640624-40.742187 0-30.882813-25.035156-55.914063-55.914062-55.914063s-55.914062 25.03125-55.914062 55.914063c0 16.066406 6.789062 30.542968 17.640624 40.742187-36.199218 15.019531-61.664062 50.703125-61.664062 92.335938 0 55.195312 44.746094 99.9375 99.9375 99.9375 55.195312 0 99.9375-44.742188 99.9375-99.9375 0-41.632813-25.464844-77.316407-61.664062-92.335938zm0 0" fill="#fe6a16"/><path d="m294.273438 205.988281c10.851562-10.199219 17.640624-24.675781 17.640624-40.742187 0-30.882813-25.035156-55.914063-55.914062-55.914063-.082031 0-.164062.003907-.246094.003907v288.925781h.246094c55.191406 0 99.9375-44.742188 99.9375-99.9375 0-41.632813-25.464844-77.316407-61.664062-92.335938zm0 0" fill="#f24500"/></svg>