<?xml version="1.0" encoding="iso-8859-1"?>
<!-- Generator: Adobe Illustrator 21.0.0, SVG Export Plug-In . SVG Version: 6.00 Build 0)  -->
<svg xmlns="http://www.w3.org/2000/svg" xmlns:xlink="http://www.w3.org/1999/xlink" version="1.1" id="Capa_1" x="0px" y="0px" viewBox="0 0 512 512" style="enable-background:new 0 0 512 512;" xml:space="preserve" width="512" height="512">
<g>
	<circle style="fill:#00DD7B;" cx="256" cy="256" r="256"/>
	<path style="fill:#00AB5E;" d="M511.762,266.68l-132.72-132.72l-164.07,67.724c-0.035-0.036-40.102-40.109-40.102-40.109   l-33.539,146.342l1.616,1.639L107,405l102.84,102.84c14.974,2.727,30.399,4.16,46.16,4.16   C393.806,512,506.16,403.11,511.762,266.68z"/>
	<g>
		<g>
			<path style="fill:#FFE470;" d="M364.258,323.516h-98.945v-50.854c-25.253-16.602-40.742-45.056-40.742-75.447     c0-49.745,40.47-90.215,90.215-90.215S405,147.47,405,197.215c0,30.391-15.489,58.845-40.742,75.447V323.516z"/>
			<path style="fill:#FFB64C;" d="M364.258,323.516v-50.854C389.511,256.06,405,227.606,405,197.215     C405,147.47,364.53,107,314.785,107v216.516H364.258z"/>
			<path style="fill:#C5C3CB;" d="M314.785,405c-14.442,0-26.191-11.749-26.191-26.191v-26.191h52.383v26.191     C340.977,393.251,329.227,405,314.785,405z"/>
			<path style="fill:#ABAAAF;" d="M314.785,405c14.442,0,26.191-11.749,26.191-26.191v-26.191h-26.191V405z"/>
			<rect x="306.055" y="216.422" style="fill:#FFA721;" width="17.461" height="98.363"/>
			<rect x="314.785" y="216.422" style="fill:#FF8503;" width="8.73" height="98.363"/>
			<path style="fill:#FF712F;" d="M314.785,225.152c-20.86,0-37.832-16.971-37.832-37.832h17.461     c0,11.233,9.139,20.371,20.371,20.371s20.371-9.139,20.371-20.371h17.461C352.617,208.181,335.646,225.152,314.785,225.152z"/>
			<path style="fill:#FF4B00;" d="M352.617,187.32h-17.461c0,11.233-9.139,20.371-20.371,20.371v17.461     C335.646,225.152,352.617,208.181,352.617,187.32z"/>
			<path style="fill:#57555C;" d="M364.258,370.078h-98.945v-64.023h98.945V370.078z"/>
			<path style="fill:#3A3A41;" d="M364.258,370.078h-49.473v-64.023h49.473V370.078z"/>
		</g>
		<g>
			<path style="fill:#FFA721;" d="M252.508,405H107v-43.652c0-30.489,24.805-55.293,55.293-55.293h34.922     c30.488,0,55.293,24.804,55.293,55.293V405z"/>
			<path style="fill:#FF8503;" d="M252.508,361.348c0-30.489-24.805-55.293-55.293-55.293h-17.461V405h72.754V361.348z"/>
			<path style="fill:#FF7856;" d="M174.869,200.261l-12.347-12.347c3.858-3.858,3.858-10.135,0-13.993l12.347-12.347     C185.534,172.241,185.534,189.595,174.869,200.261z"/>
			<path style="fill:#FED2A4;" d="M179.754,323.516c-30.488,0-55.293-24.804-55.293-55.293s24.805-55.293,55.293-55.293     s55.293,24.804,55.293,55.293S210.242,323.516,179.754,323.516z"/>
			<path style="fill:#FFBD86;" d="M179.754,212.93v110.586c30.488,0,55.293-24.804,55.293-55.293S210.242,212.93,179.754,212.93z"/>
			<path style="fill:#FF3980;" d="M220.22,257.472c-1.098,0-2.2-0.072-3.301-0.217v0l-42.489-5.591     c-2.582-0.34-5.211-0.512-7.814-0.512h-17.975c-19.11,0-34.657-15.547-34.657-34.657c0-19.11,15.547-34.658,34.657-34.658h4.521     c13.027,0,26.135,2.948,37.908,8.524l39.982,18.938c8.791,4.165,14.471,13.141,14.471,22.867c0,7.286-3.141,14.219-8.619,19.023     C232.262,255.264,226.322,257.472,220.22,257.472z"/>
			<path style="fill:#FF0059;" d="M231.052,209.301l-39.982-18.938c-3.657-1.732-7.444-3.21-11.317-4.426v66.428l37.165,4.89v0     c1.102,0.145,2.204,0.217,3.301,0.217c6.101,0,12.041-2.208,16.684-6.28c5.478-4.804,8.619-11.738,8.619-19.023     C245.523,222.442,239.844,213.466,231.052,209.301z"/>
		</g>
	</g>
</g>















</svg>
