<svg id="Layer_1" enable-background="new 0 0 512.5 512.5" height="512" viewBox="0 0 512.5 512.5" width="512" xmlns="http://www.w3.org/2000/svg"><path d="m255.958 450.763c-107.523 0-195-87.477-195-195s87.477-195 195-195c107.524 0 195 87.477 195 195s-87.476 195-195 195z" fill="#fff4f4"/><path d="m255.958 60.763v390c107.524 0 195-87.477 195-195s-87.476-195-195-195z" fill="#f6efea"/><path d="m405.959 512.192h-300c-8.284 0-15-6.716-15-15v-2c0-44.112 35.888-80 80-80h170c44.112 0 80 35.888 80 80v2c0 8.285-6.716 15-15 15z" fill="#392e6e"/><path d="m112.009 257.123c-8.094 0-14.763-6.447-14.986-14.588-.035-1.257-.052-2.515-.052-3.772 0-75.305 61.266-136.571 136.571-136.571 8.285 0 15 6.716 15 15s-6.715 15-15 15c-58.763 0-106.571 47.808-106.571 106.571 0 .983.014 1.965.041 2.948.228 8.281-6.301 15.179-14.582 15.406-.141.004-.282.006-.421.006z" fill="#eee1dc"/><path d="m434 330.192c-5.553 0-10.652-3.068-13.253-7.975l-19.843-37.43-37.43-19.842c-4.906-2.601-7.975-7.7-7.975-13.253s3.068-10.652 7.975-13.253l37.43-19.842 19.843-37.43c2.601-4.907 7.7-7.975 13.253-7.975s10.652 3.068 13.253 7.975l19.843 37.43 37.43 19.842c4.906 2.601 7.975 7.7 7.975 13.253s-3.068 10.652-7.975 13.253l-37.43 19.842-19.843 37.43c-2.601 4.907-7.7 7.975-13.253 7.975z" fill="#76e2f8"/><path d="m55.692 111.692c-5.084 0-9.823-2.576-12.588-6.843l-14.257-22.003-22.004-14.258c-4.267-2.765-6.843-7.503-6.843-12.588 0-5.084 2.576-9.823 6.843-12.588l22.003-14.258 14.258-22.004c2.765-4.267 7.503-6.843 12.588-6.843 5.085 0 9.823 2.576 12.588 6.843l14.257 22.003 22.003 14.257c4.267 2.765 6.843 7.503 6.843 12.588 0 5.084-2.576 9.823-6.843 12.588l-22.001 14.26-14.258 22.003c-2.765 4.267-7.504 6.843-12.589 6.843z" fill="#a8ebfa"/><path d="m340.959 415.192h-84.709v97h149.709c8.284 0 15-6.716 15-15v-2c0-44.112-35.888-80-80-80z" fill="#2b2256"/></svg>