<svg id="Capa_1" enable-background="new 0 0 513.502 513.502" height="512" viewBox="0 0 513.502 513.502" width="512" xmlns="http://www.w3.org/2000/svg"><path d="m256.751 512c-68.38 0-132.667-26.629-181.02-74.98-48.351-48.352-74.98-112.64-74.98-181.02s26.629-132.668 74.98-181.02c48.353-48.351 112.64-74.98 181.02-74.98s132.667 26.629 181.02 74.98c48.352 48.352 74.981 112.64 74.981 181.02s-26.629 132.668-74.981 181.02c-48.353 48.351-112.64 74.98-181.02 74.98z" fill="#fff35c"/><path d="m437.77 438.521c48.352-48.352 74.981-112.64 74.981-181.02s-26.629-132.667-74.981-181.02c-48.353-48.352-112.64-74.98-181.02-74.98v512c68.381.001 132.668-26.628 181.02-74.98z" fill="#ffb500"/><path d="m299.111 197.212c-2.678 0-5.332-.717-7.674-2.111-10.686-6.362-22.946-9.725-35.454-9.725-12.132 0-24.067 3.17-34.515 9.169-7.17 4.118-16.324 1.654-20.459-5.508l-48.93-84.75c-1.995-3.455-2.531-7.562-1.49-11.413s3.572-7.129 7.035-9.109c30.053-17.181 64.33-26.263 99.126-26.263s69.073 9.081 99.126 26.263c3.463 1.98 5.995 5.258 7.035 9.109 1.041 3.851.505 7.959-1.49 11.413l-49.32 85.425c-2.007 3.475-5.322 6.002-9.205 7.015-1.246.325-2.518.485-3.785.485z" fill="#006099"/><path d="m291.437 195.1c2.342 1.394 4.996 2.111 7.674 2.111 1.267 0 2.539-.16 3.785-.485 3.883-1.013 7.198-3.539 9.205-7.015l49.32-85.425c1.995-3.455 2.531-7.562 1.49-11.413-1.04-3.851-3.572-7.129-7.035-9.109-30.053-17.181-64.33-26.263-99.126-26.263v127.886c12.242.136 24.22 3.482 34.687 9.713z" fill="#00213b"/><path d="m350.09 432.25c-1.285 0-2.574-.165-3.838-.499-3.861-1.022-7.155-3.542-9.152-7.001l-51.639-89.441c-4.13-7.153-1.7-16.298 5.435-20.458 21.075-12.289 34.302-35.05 34.519-59.402.073-8.232 6.767-14.867 14.999-14.867h101.313c8.222 0 14.911 6.619 14.999 14.84l.01.632c.008.482.016.963.016 1.447 0 35.545-9.45 70.458-27.328 100.966-17.341 29.591-42.152 54.394-71.754 71.727-2.319 1.359-4.94 2.056-7.58 2.056z" fill="#00213b"/><path d="m163.412 432.25c-2.642 0-5.261-.698-7.579-2.056-29.602-17.333-54.413-42.136-71.754-71.727-17.878-30.508-27.328-65.421-27.328-100.966 0-.484.008-.965.016-1.447l.01-.632c.088-8.221 6.777-14.84 14.999-14.84h99.778c8.232 0 14.926 6.635 14.999 14.867.221 24.801 13.811 47.77 35.468 59.943 3.493 1.964 6.057 5.245 7.116 9.11 1.06 3.865.527 7.994-1.477 11.465l-51.258 88.782c-1.997 3.459-5.291 5.979-9.152 7.001-1.264.335-2.553.5-3.838.5z" fill="#006099"/><path d="m256.751 299.815c-24.814 0-45-20.187-45-45s20.186-45 45-45c24.813 0 45 20.187 45 45s-20.187 45-45 45z" fill="#006099"/><path d="m301.751 254.815c0-24.813-20.186-45-45-45v90c24.813 0 45-20.187 45-45z" fill="#00213b"/><path d="m256.751 513.502c-68.38 0-132.667-26.629-181.02-74.98-48.352-48.352-74.98-112.64-74.98-181.02s26.629-132.667 74.98-181.02c48.352-48.352 112.64-74.98 181.02-74.98s132.667 26.629 181.02 74.98c48.352 48.352 74.981 112.64 74.981 181.02s-26.629 132.668-74.981 181.02c-48.353 48.351-112.64 74.98-181.02 74.98zm0-482c-60.367 0-117.12 23.508-159.806 66.194-42.687 42.686-66.194 99.439-66.194 159.806s23.508 117.12 66.194 159.806c42.686 42.685 99.438 66.194 159.806 66.194s117.12-23.508 159.806-66.194 66.194-99.44 66.194-159.806-23.508-117.12-66.194-159.806c-42.686-42.686-99.439-66.194-159.806-66.194z" fill="#006099"/><path d="m416.557 97.696c42.686 42.686 66.194 99.439 66.194 159.806s-23.508 117.12-66.194 159.806c-42.686 42.685-99.439 66.194-159.806 66.194v30c68.38 0 132.667-26.629 181.02-74.98 48.352-48.352 74.981-112.64 74.981-181.02s-26.629-132.667-74.981-181.02c-48.353-48.352-112.64-74.98-181.02-74.98v30c60.367 0 117.12 23.508 159.806 66.194z" fill="#00213b"/></svg>