<svg height="512pt" viewBox="0 0 512 512" width="512pt" xmlns="http://www.w3.org/2000/svg"><path d="m512 256c0 141.386719-114.613281 256-256 256s-256-114.613281-256-256 114.613281-256 256-256 256 114.613281 256 256zm0 0" fill="#4a7aff"/><path d="m512 256c0-8.382812-.414062-16.671875-1.203125-24.847656l-65.789063-65.789063-8.574218 8.09375-52.390625-52.386719-3.855469 49.539063-63.222656-63.226563-10.832032 5.839844-50.132812-50.132812-37.675781 115.960937 110.3125 110.3125-15.34375.371094-124.371094-124.371094-11.542969 5.128907-49.421875-49.421876-37.675781 115.957032 80.261719 80.265625-71.121094 60.230469 133.421875 133.421874c7.628906.683594 15.347656 1.054688 23.15625 1.054688 141.386719 0 256-114.613281 256-256zm0 0" fill="#0053bf"/><path d="m427.046875 336.570312c0 36.015626-29.199219 65.210938-65.214844 65.210938s-65.214843-29.195312-65.214843-65.210938c0-36.015624 29.199218-65.214843 65.214843-65.214843s65.214844 29.199219 65.214844 65.214843zm0 0" fill="#dce1eb"/><path d="m390.160156 322.925781c0 15.644531-12.683594 28.328125-28.328125 28.328125s-28.328125-12.683594-28.328125-28.328125 12.683594-28.328125 28.328125-28.328125 28.328125 12.683594 28.328125 28.328125zm0 0" fill="#e09380"/><path d="m316.789062 383.726562c11.707032 11.1875 27.570313 18.054688 45.042969 18.054688 17.46875 0 33.335938-6.871094 45.042969-18.054688-7.171875-17.847656-24.628906-30.460937-45.042969-30.460937-20.414062 0-37.871093 12.613281-45.042969 30.460937zm0 0" fill="#ff7045"/><path d="m215.382812 336.570312c0 36.015626-29.199218 65.210938-65.214843 65.210938s-65.214844-29.195312-65.214844-65.210938c0-36.015624 29.199219-65.214843 65.214844-65.214843s65.214843 29.199219 65.214843 65.214843zm0 0" fill="#fff"/><path d="m178.496094 322.925781c0 15.644531-12.683594 28.328125-28.328125 28.328125s-28.328125-12.683594-28.328125-28.328125 12.683594-28.328125 28.328125-28.328125 28.328125 12.683594 28.328125 28.328125zm0 0" fill="#ffbeaa"/><path d="m105.125 383.726562c11.707031 11.1875 27.574219 18.054688 45.042969 18.054688 17.472656 0 33.335937-6.871094 45.042969-18.054688-7.171876-17.847656-24.628907-30.460937-45.042969-30.460937-20.414063 0-37.871094 12.613281-45.042969 30.460937zm0 0" fill="#ff7045"/><path d="m340.234375 336.570312c0 46.519532-37.714844 84.234376-84.234375 84.234376s-84.234375-37.714844-84.234375-84.234376c0-46.519531 37.714844-84.234374 84.234375-84.234374s84.234375 37.714843 84.234375 84.234374zm0 0" fill="#e9edf5"/><path d="m340.234375 336.570312c0-46.519531-37.714844-84.234374-84.234375-84.234374v168.46875c46.519531 0 84.234375-37.714844 84.234375-84.234376zm0 0" fill="#cdd2e1"/><path d="m292.589844 318.949219c0 20.207031-16.382813 36.589843-36.589844 36.589843s-36.589844-16.382812-36.589844-36.589843c0-20.210938 16.382813-36.589844 36.589844-36.589844s36.589844 16.378906 36.589844 36.589844zm0 0" fill="#ffbeaa"/><path d="m256 282.359375v73.175781c20.207031 0 36.589844-16.378906 36.589844-36.585937 0-20.210938-16.382813-36.589844-36.589844-36.589844zm0 0" fill="#e09380"/><path d="m197.820312 397.480469c15.121094 14.449219 35.613282 23.324219 58.179688 23.324219s43.058594-8.875 58.179688-23.324219c-9.265626-23.054688-31.8125-39.34375-58.179688-39.34375s-48.914062 16.289062-58.179688 39.34375zm0 0" fill="#ffce00"/><path d="m256 358.136719v62.667969c22.566406 0 43.058594-8.875 58.179688-23.324219-9.265626-23.054688-31.8125-39.34375-58.179688-39.34375zm0 0" fill="#ffb600"/><path d="m256 63.089844 18.839844 38.171875 42.125 6.121093-30.484375 29.710938 7.195312 41.957031-37.675781-19.808593-37.675781 19.808593 7.195312-41.957031-30.484375-29.710938 42.125-6.121093zm0 0" fill="#ffce00"/><path d="m316.964844 107.382812-42.125-6.121093-18.839844-38.171875v96.152344l37.675781 19.808593-7.195312-41.957031zm0 0" fill="#ffb600"/><path d="m384.042969 121.070312 18.839843 38.171876 42.125 6.121093-30.484374 29.710938 7.195312 41.953125-37.675781-19.804688-37.679688 19.804688 7.199219-41.953125-30.484375-29.710938 42.125-6.121093zm0 0" fill="#ffb600"/><path d="m127.957031 121.070312 18.839844 38.171876 42.125 6.121093-30.484375 29.710938 7.199219 41.953125-37.679688-19.804688-37.675781 19.804688 7.195312-41.953125-30.484374-29.710938 42.125-6.121093zm0 0" fill="#ffce00"/></svg>